<svg width="458" height="731" viewBox="0 0 458 731" fill="none" xmlns="http://www.w3.org/2000/svg">
<rect x="0.948148" y="730.052" width="728.242" height="456.104" rx="18.1212" transform="rotate(-90 0.948148 730.052)" fill="white" fill-opacity="0.45098" stroke="url(#paint0_linear_101_76)" stroke-width="1.75762"/>
<path d="M246.718 658.11L282.069 658.11L282.069 662.554L251.308 662.554L251.308 662.749L257.021 671.343L252.577 671.343L246.718 662.554L246.718 658.11ZM282.069 648.686L278.847 648.735L266.151 636.675C261.708 632.475 259.315 630.474 256.044 630.474C252.431 630.474 250.038 633.55 250.038 637.505C250.038 641.704 252.724 644.39 256.679 644.39L256.679 648.54C250.429 648.589 246.229 643.755 246.229 637.358C246.229 630.962 250.526 626.372 256.044 626.372C259.999 626.372 263.075 628.227 269.521 634.477L277.87 642.583L278.163 642.583L278.163 625.737L282.069 625.737L282.069 648.686ZM282.558 607.134C282.558 614.165 278.798 619.194 273.183 619.438L273.183 614.995C276.552 614.751 278.651 611.382 278.651 607.182C278.651 602.544 276.112 599.126 272.45 599.126C268.593 599.126 265.858 602.202 265.858 607.72L265.858 610.6L262.001 610.6L262.001 607.72C262.001 603.423 259.608 600.444 255.946 600.444C252.431 600.444 250.038 603.032 250.038 607.036C250.038 610.796 252.138 614.263 255.604 614.458L255.604 618.706C249.989 618.462 246.229 613.286 246.229 606.987C246.229 600.249 250.624 596.147 255.702 596.196C259.706 596.147 262.685 598.491 263.71 602.202L263.954 602.202C264.687 597.612 267.958 594.78 272.45 594.829C278.261 594.78 282.558 600.102 282.558 607.134ZM274.843 589.36L271.229 589.36L246.718 573.442L246.718 568.022L270.985 568.022L270.985 563.091L274.843 563.091L274.843 568.022L282.069 568.022L282.069 572.222L274.843 572.222L274.843 589.36ZM270.985 584.624L270.985 572.222L252.284 572.222L252.284 572.661L270.692 584.624L270.985 584.624ZM282.558 533.208C282.558 539.604 278.603 544.438 273.183 544.682L273.183 540.434C276.356 540.093 278.7 537.016 278.7 533.208C278.7 528.618 275.331 525.298 270.888 525.298C266.298 525.298 262.929 528.765 262.88 533.501C262.831 536.479 263.759 538.774 266.054 540.093L266.054 544.341L246.718 541.85L246.718 522.71L250.624 522.71L250.624 538.188L260.976 539.507L260.976 539.165C259.755 537.602 258.925 535.21 258.925 532.72C258.925 525.981 263.905 521.001 270.79 521.001C277.626 521.001 282.558 526.177 282.558 533.208ZM282.558 502.593C282.46 508.745 278.847 515.483 265.761 515.483C253.261 515.483 246.229 510.356 246.229 502.056C246.229 495.854 250.038 491.509 255.604 490.581L255.604 494.927C252.479 495.757 250.136 498.1 250.136 502.056C250.136 507.866 255.116 511.333 263.612 511.333L263.612 510.893C260.683 508.843 258.925 505.62 258.925 501.811C258.925 495.513 263.808 490.288 270.644 490.288C277.284 490.288 282.606 495.171 282.558 502.593ZM278.7 502.593C278.7 498.003 275.087 494.585 270.692 494.536C266.347 494.585 262.782 497.856 262.782 502.495C262.782 507.134 266.542 510.698 270.741 510.747C274.892 510.747 278.7 507.329 278.7 502.593ZM282.069 483.11L250.868 466.899L250.624 466.899L250.624 485.6L246.718 485.6L246.718 462.358L250.819 462.358L282.069 478.52L282.069 483.11ZM282.558 445.513C282.558 452.934 278.456 458.11 272.694 458.061C268.104 458.11 264.345 454.936 263.71 450.884L263.515 450.884C262.685 454.399 259.462 456.694 255.604 456.694C250.185 456.694 246.229 451.958 246.229 445.513C246.229 439.067 250.185 434.331 255.604 434.282C259.462 434.331 262.685 436.675 263.515 440.141L263.71 440.141C264.345 436.138 268.104 432.964 272.694 432.915C278.456 432.964 282.558 438.14 282.558 445.513ZM278.7 445.513C278.7 440.434 276.161 437.309 272.45 437.309C268.544 437.309 265.663 440.776 265.663 445.513C265.663 450.249 268.544 453.765 272.45 453.667C276.161 453.765 278.7 450.591 278.7 445.513ZM261.952 445.513C261.952 441.509 259.511 438.579 255.946 438.579C252.431 438.579 250.038 441.362 250.038 445.513C250.038 449.712 252.431 452.446 255.946 452.446C259.511 452.446 261.952 449.565 261.952 445.513ZM274.843 415.337L271.229 415.337L246.718 399.419L246.718 393.999L270.985 393.999L270.985 389.067L274.843 389.067L274.843 393.999L282.069 393.999L282.069 398.198L274.843 398.198L274.843 415.337ZM270.985 410.6L270.985 398.198L252.284 398.198L252.284 398.638L270.692 410.6L270.985 410.6ZM282.558 371.733C282.558 378.13 278.603 382.964 273.183 383.208L273.183 378.96C276.356 378.618 278.7 375.542 278.7 371.733C278.7 367.143 275.331 363.823 270.888 363.823C266.298 363.823 262.929 367.29 262.88 372.026C262.831 375.005 263.759 377.3 266.054 378.618L266.054 382.866L246.718 380.376L246.718 361.235L250.624 361.235L250.624 376.714L260.976 378.032L260.976 377.69C259.755 376.128 258.925 373.735 258.925 371.245C258.925 364.507 263.905 359.526 270.79 359.526C277.626 359.526 282.558 364.702 282.558 371.733ZM282.558 341.118C282.46 347.27 278.847 354.009 265.761 354.009C253.261 354.009 246.229 348.882 246.229 340.581C246.229 334.38 250.038 330.034 255.604 329.106L255.604 333.452C252.479 334.282 250.136 336.626 250.136 340.581C250.136 346.391 255.116 349.858 263.612 349.858L263.612 349.419C260.683 347.368 258.925 344.145 258.925 340.337C258.925 334.038 263.808 328.813 270.644 328.813C277.284 328.813 282.606 333.696 282.558 341.118ZM278.7 341.118C278.7 336.528 275.087 333.11 270.692 333.061C266.347 333.11 262.782 336.382 262.782 341.02C262.782 345.659 266.542 349.224 270.741 349.272C274.892 349.272 278.7 345.854 278.7 341.118ZM282.069 321.636L250.868 305.425L250.624 305.425L250.624 324.126L246.718 324.126L246.718 300.884L250.819 300.884L282.069 317.046L282.069 321.636ZM282.069 281.499L250.868 265.288L250.624 265.288L250.624 283.989L246.718 283.989L246.718 260.747L250.819 260.747L282.069 276.909L282.069 281.499ZM282.558 243.901C282.558 251.323 278.456 256.499 272.694 256.45C268.104 256.499 264.345 253.325 263.71 249.272L263.515 249.272C262.685 252.788 259.462 255.083 255.604 255.083C250.185 255.083 246.229 250.347 246.229 243.901C246.229 237.456 250.185 232.72 255.604 232.671C259.462 232.72 262.685 235.063 263.515 238.53L263.71 238.53C264.345 234.526 268.104 231.352 272.694 231.304C278.456 231.352 282.558 236.528 282.558 243.901ZM278.7 243.901C278.7 238.823 276.161 235.698 272.45 235.698C268.544 235.698 265.663 239.165 265.663 243.901C265.663 248.638 268.544 252.153 272.45 252.056C276.161 252.153 278.7 248.979 278.7 243.901ZM261.952 243.901C261.952 239.897 259.511 236.968 255.946 236.968C252.431 236.968 250.038 239.751 250.038 243.901C250.038 248.1 252.431 250.835 255.946 250.835C259.511 250.835 261.952 247.954 261.952 243.901ZM246.229 213.628C246.278 207.524 249.94 200.786 262.978 200.786C275.526 200.786 282.558 205.913 282.558 214.214C282.558 220.415 278.749 224.809 273.134 225.688L273.134 221.343C276.308 220.561 278.651 218.169 278.651 214.214C278.651 208.452 273.671 204.936 265.077 204.888L265.077 205.376C268.007 207.427 269.765 210.649 269.765 214.409C269.765 220.757 264.931 225.981 258.095 225.981C251.503 225.981 246.181 221.147 246.229 213.628ZM250.087 213.628C250.087 218.266 253.7 221.733 258.046 221.684C262.44 221.684 265.907 218.413 265.907 213.774C265.907 209.184 262.099 205.571 257.948 205.571C253.896 205.571 250.087 208.94 250.087 213.628ZM282.558 183.159C282.558 191.02 275.966 195.513 264.394 195.513C252.919 195.513 246.229 190.923 246.229 183.159C246.229 175.395 252.919 170.806 264.394 170.806C275.966 170.806 282.558 175.347 282.558 183.159ZM278.651 183.159C278.651 178.081 273.524 175.102 264.394 175.102C255.263 175.102 250.038 178.081 250.038 183.159C250.038 188.237 255.263 191.265 264.394 191.265C273.524 191.265 278.651 188.286 278.651 183.159Z" fill="white"/>
<path d="M405.498 670.998L380.247 670.998L380.247 662.418C380.247 656.489 383.525 653.803 388.025 653.803C391.355 653.803 393.989 655.303 395.105 658.511L405.498 652.826L405.498 656.489L395.663 661.755L395.698 662.383L395.698 667.859L405.498 667.859L405.498 670.998ZM392.838 667.859L392.838 662.522C392.838 658.511 391.024 656.907 388.025 656.907C384.99 656.907 383.037 658.511 383.037 662.557L383.037 667.859L392.838 667.859ZM397.72 637.69L386.56 637.69L386.56 634.725L405.498 634.725L405.498 637.69L402.289 637.69L402.289 637.899C404.208 638.806 405.742 640.654 405.742 643.514C405.742 647.107 403.405 649.653 398.592 649.653L386.56 649.653L386.56 646.653L398.383 646.653C401.104 646.653 402.847 644.944 402.847 642.538C402.847 640.41 401.243 637.69 397.72 637.69ZM380.247 626.913L405.498 626.913L405.498 629.912L380.247 629.912L380.247 626.913ZM405.882 614.182C405.882 619.658 402.01 623.041 396.186 623.041C390.361 623.041 386.316 619.623 386.316 614.462C386.316 610.486 388.757 606.3 395.767 606.3L397.023 606.3L397.023 620.042C401.034 619.902 403.231 617.566 403.231 614.182C403.231 611.915 402.254 610.486 401.069 609.788L401.069 606.579C403.929 607.486 405.882 610.276 405.882 614.182ZM394.477 620.007L394.477 609.335C391.303 609.335 388.966 611.357 388.966 614.462C388.966 617.74 391.547 619.833 394.477 620.007ZM405.498 602.394L386.56 602.394L386.56 599.499L389.455 599.499L389.455 599.29C387.536 598.592 386.246 596.639 386.246 594.407C386.246 593.954 386.281 593.186 386.316 592.838L389.35 592.838C389.28 593.047 389.141 593.884 389.141 594.651C389.141 597.372 391.024 599.395 393.57 599.395L405.498 599.395L405.498 602.394Z" fill="white"/>
<path d="M357.524 662.242C360.4 662.242 362.195 663.937 362.195 666.26C362.195 668.595 360.4 670.278 357.524 670.278C354.649 670.278 352.854 668.595 352.854 666.26C352.854 663.937 354.649 662.242 357.524 662.242ZM357.524 663.334C355.176 663.334 353.908 664.615 353.908 666.26C353.908 667.905 355.176 669.185 357.524 669.185C359.872 669.185 361.14 667.905 361.14 666.26C361.14 664.615 359.872 663.334 357.524 663.334ZM362.07 659.191L355.252 661.263L355.252 660.12L360.45 658.664L360.45 658.601L355.252 657.157L355.252 656.002L360.425 654.583L360.425 654.508L355.252 653.051L355.252 651.921L362.07 653.993L362.07 655.06L356.871 656.542L356.871 656.642L362.07 658.111L362.07 659.191ZM357.976 649.648L362.07 649.648L362.07 650.728L355.252 650.728L355.252 649.686L356.319 649.686L356.319 649.598C355.628 649.272 355.164 648.644 355.164 647.602C355.164 646.221 356.005 645.304 357.738 645.304L362.07 645.304L362.07 646.384L357.813 646.384C356.758 646.384 356.131 646.962 356.131 647.928C356.131 648.92 356.796 649.648 357.976 649.648ZM362.208 640.709C362.208 642.68 360.814 643.898 358.717 643.898C356.62 643.898 355.164 642.667 355.164 640.809C355.164 639.378 356.043 637.871 358.567 637.871L359.019 637.871L359.019 642.818C360.462 642.768 361.253 641.927 361.253 640.709C361.253 639.893 360.902 639.378 360.475 639.127L360.475 637.972C361.505 638.298 362.208 639.302 362.208 640.709ZM358.102 642.806L358.102 638.963C356.959 638.963 356.118 639.692 356.118 640.809C356.118 641.989 357.047 642.743 358.102 642.806ZM362.07 636.465L355.252 636.465L355.252 635.423L356.294 635.423L356.294 635.347C355.603 635.096 355.139 634.393 355.139 633.59C355.139 633.426 355.151 633.15 355.164 633.025L356.256 633.025C356.231 633.1 356.181 633.401 356.181 633.677C356.181 634.657 356.859 635.385 357.775 635.385L362.07 635.385L362.07 636.465ZM352.979 621.385L362.07 621.385L362.07 622.465L354.988 627.387L354.988 627.475L362.07 627.475L362.07 628.605L352.979 628.605L352.979 627.513L360.073 622.591L360.073 622.503L352.979 622.503L352.979 621.385ZM360.136 619.841C358.567 619.841 358.215 618.46 358.127 617.28C358.096 616.846 358.039 615.742 358.027 615.434L357.474 615.434C356.608 615.434 356.106 615.949 356.106 616.978C356.106 617.845 356.507 618.359 357.022 618.51L357.022 619.64C355.93 619.502 355.164 618.435 355.164 616.928C355.164 616.037 355.428 614.367 357.575 614.367L362.07 614.367L362.07 615.434L361.14 615.434L361.14 615.484C361.605 615.71 362.233 616.338 362.233 617.518C362.233 618.811 361.467 619.841 360.136 619.841ZM360.186 618.761C360.902 618.761 361.266 618.158 361.266 617.33C361.266 616.112 360.45 615.434 359.596 615.434L358.906 615.434L359.031 617.154C359.094 618.133 359.445 618.761 360.186 618.761ZM362.07 612.634L355.252 612.634L355.252 611.592L356.319 611.592L356.319 611.504C355.591 611.215 355.164 610.562 355.164 609.671C355.164 608.779 355.591 608.177 356.319 607.85L356.319 607.775C355.616 607.423 355.164 606.708 355.164 605.728C355.164 604.51 355.905 603.644 357.512 603.644L362.07 603.644L362.07 604.724L357.524 604.724C356.52 604.724 356.131 605.364 356.131 606.105C356.131 607.059 356.771 607.599 357.637 607.599L362.07 607.599L362.07 608.691L357.411 608.691C356.645 608.691 356.131 609.244 356.131 610.022C356.131 610.838 356.821 611.554 357.813 611.554L362.07 611.554L362.07 612.634ZM362.208 599.049C362.208 601.02 360.814 602.238 358.717 602.238C356.62 602.238 355.164 601.007 355.164 599.149C355.164 597.718 356.043 596.211 358.567 596.211L359.019 596.211L359.019 601.158C360.462 601.108 361.253 600.266 361.253 599.049C361.253 598.232 360.902 597.718 360.475 597.467L360.475 596.311C361.505 596.638 362.208 597.642 362.208 599.049ZM358.102 601.145L358.102 597.303C356.959 597.303 356.118 598.032 356.118 599.149C356.118 600.329 357.047 601.083 358.102 601.145Z" fill="white"/>
<path d="M362.07 485.64L352.979 485.64L352.979 480.128L353.984 480.128L353.984 484.51L357.022 484.51L357.022 480.417L358.014 480.417L358.014 484.51L361.065 484.51L361.065 480.066L362.07 480.066L362.07 485.64ZM355.252 477.667L358.027 476.06L355.252 474.441L355.252 473.198L358.654 475.395L362.07 473.198L362.07 474.428L359.433 476.06L362.07 477.667L362.07 478.91L358.654 476.763L355.252 478.91L355.252 477.667ZM364.631 471.892L355.252 471.892L355.252 470.85L356.332 470.85L356.332 470.724C355.967 470.498 355.164 470.071 355.164 468.753C355.164 467.045 356.52 465.852 358.68 465.852C360.839 465.852 362.208 467.045 362.208 468.74C362.208 470.046 361.404 470.498 361.027 470.724L361.027 470.812L364.631 470.812L364.631 471.892ZM358.654 470.837C360.186 470.837 361.241 470.147 361.241 468.891C361.241 467.598 360.111 466.932 358.654 466.932C357.236 466.932 356.131 467.585 356.131 468.891C356.131 470.172 357.148 470.837 358.654 470.837ZM362.07 464.446L355.252 464.446L355.252 463.366L362.07 463.366L362.07 464.446ZM354.122 463.906C354.122 464.321 353.808 464.66 353.406 464.66C353.004 464.66 352.69 464.321 352.69 463.906C352.69 463.492 353.004 463.14 353.406 463.14C353.808 463.14 354.122 463.492 354.122 463.906ZM362.07 461.646L355.252 461.646L355.252 460.604L356.294 460.604L356.294 460.529C355.603 460.278 355.139 459.575 355.139 458.771C355.139 458.608 355.151 458.331 355.164 458.206L356.256 458.206C356.231 458.281 356.181 458.583 356.181 458.859C356.181 459.838 356.859 460.566 357.775 460.566L362.07 460.566L362.07 461.646ZM364.631 456.247C364.631 456.486 364.618 456.712 364.606 456.85L363.639 456.85C363.652 456.737 363.664 456.486 363.664 456.323C363.664 455.883 363.627 455.519 362.635 455.155L362.12 454.954L355.252 457.478L355.252 456.297L360.663 454.439L360.663 454.364L355.252 452.506L355.252 451.325L363.049 454.213C364.116 454.615 364.631 455.28 364.631 456.247Z" fill="white"/>
<path d="M405.847 478.864C405.847 484.48 401.138 487.688 392.872 487.688C384.676 487.688 379.898 484.41 379.898 478.864C379.898 473.319 384.676 470.04 392.872 470.04C401.138 470.04 405.847 473.284 405.847 478.864ZM403.057 478.864C403.057 475.237 399.395 473.11 392.872 473.11C386.35 473.11 382.619 475.237 382.619 478.864C382.619 482.492 386.35 484.654 392.872 484.654C399.395 484.654 403.057 482.527 403.057 478.864ZM380.247 456.927L405.498 456.927L405.498 460.1L383.525 460.1L383.525 460.24L387.606 466.378L384.432 466.378L380.247 460.1L380.247 456.927ZM379.061 441.162L409.3 449.323L409.3 452.044L379.061 443.917L379.061 441.162ZM405.847 430.001C405.847 435.617 401.138 438.825 392.872 438.825C384.676 438.825 379.898 435.547 379.898 430.001C379.898 424.456 384.676 421.177 392.872 421.177C401.138 421.177 405.847 424.421 405.847 430.001ZM403.057 430.001C403.057 426.374 399.395 424.247 392.872 424.247C386.35 424.247 382.619 426.374 382.619 430.001C382.619 433.629 386.35 435.791 392.872 435.791C399.395 435.791 403.057 433.664 403.057 430.001ZM380.247 408.064L405.498 408.064L405.498 411.237L383.525 411.237L383.525 411.377L387.606 417.515L384.432 417.515L380.247 411.237L380.247 408.064Z" fill="white"/>
<path d="M355.842 325.152C354.586 325.416 353.908 326.496 353.908 327.688C353.908 329.333 355.176 330.614 357.524 330.614C359.872 330.614 361.14 329.333 361.14 327.688C361.14 326.496 360.462 325.428 359.219 325.152L359.219 324.022C361.078 324.349 362.195 325.843 362.195 327.688C362.195 330.024 360.4 331.706 357.524 331.706C354.649 331.706 352.854 330.024 352.854 327.688C352.854 325.855 353.959 324.361 355.842 324.022L355.842 325.152ZM352.979 322.026L360.601 319.351L360.601 319.251L352.979 316.564L352.979 315.371L362.07 318.698L362.07 319.891L352.979 323.219L352.979 322.026ZM352.979 313.726L360.601 311.052L360.601 310.951L352.979 308.265L352.979 307.072L362.07 310.399L362.07 311.592L352.979 314.919L352.979 313.726Z" fill="white"/>
<path d="M405.498 332.042L383.211 320.463L383.037 320.463L383.037 333.821L380.247 333.821L380.247 317.22L383.177 317.22L405.498 328.764L405.498 332.042ZM405.498 311.639L383.211 300.06L383.037 300.06L383.037 313.418L380.247 313.418L380.247 296.816L383.177 296.816L405.498 308.361L405.498 311.639ZM405.498 291.236L383.211 279.657L383.037 279.657L383.037 293.015L380.247 293.015L380.247 276.413L383.177 276.413L405.498 287.958L405.498 291.236Z" fill="white"/>
<path d="M158.144 627.471L158.144 614.915L165.119 614.915L165.119 627.471L158.144 627.471Z" fill="white"/>
<path d="M169.305 661.232L169.305 648.676L176.28 648.676L176.28 661.232L169.305 661.232Z" fill="white"/>
<path d="M158.144 661.232L158.144 648.676L165.119 648.676L165.119 661.232L158.144 661.232Z" fill="white"/>
<path d="M160.934 644.491L160.934 631.656L173.49 631.656L173.49 644.491L160.934 644.491Z" fill="white"/>
<path d="M169.305 627.471L169.305 614.915L176.28 614.915L176.28 627.471L169.305 627.471Z" fill="white"/>
<path d="M153.959 646.583C153.959 645.428 154.896 644.491 156.052 644.491L156.749 644.491L156.749 640.166L151.866 640.166C151.311 640.166 150.779 639.946 150.387 639.553L149.774 638.94L149.774 661.232L153.959 661.232L153.959 646.583Z" fill="white"/>
<path d="M152.733 635.981L156.749 635.981L156.749 631.656L156.052 631.656C154.896 631.656 153.959 630.719 153.959 629.563L153.959 614.915L149.774 614.915L149.774 633.021L152.733 635.981Z" fill="white"/>
<path d="M180.465 629.563C180.465 630.719 179.529 631.656 178.373 631.656L177.675 631.656L177.675 635.981L182.558 635.981C183.113 635.981 183.645 636.201 184.038 636.594L184.651 637.207L184.651 614.915L180.465 614.915L180.465 629.563Z" fill="white"/>
<path d="M181.691 640.166L177.675 640.166L177.675 644.491L178.373 644.491C179.529 644.491 180.465 645.428 180.465 646.583L180.465 661.232L184.651 661.232L184.651 643.125L181.691 640.166Z" fill="white"/>
<path d="M137.218 612.822L137.218 663.325C137.218 669.094 141.912 673.788 147.681 673.788L186.743 673.788C192.513 673.788 197.207 669.094 197.207 663.325L197.207 612.822C197.207 607.053 192.513 602.359 186.743 602.359L147.681 602.359C141.912 602.359 137.218 607.053 137.218 612.822ZM186.743 610.73C187.899 610.73 188.836 611.667 188.836 612.822L188.836 663.325C188.836 664.48 187.899 665.417 186.743 665.417L147.681 665.417C146.525 665.417 145.588 664.48 145.588 663.325L145.588 612.822C145.588 611.667 146.525 610.73 147.681 610.73L186.743 610.73Z" fill="white"/>
<circle cx="88.2187" cy="92.3538" r="34.1494" transform="rotate(-90 88.2187 92.3538)" fill="white"/>
<path fill-rule="evenodd" clip-rule="evenodd" d="M118.456 146.356C112.126 156.379 100.95 163.036 88.2187 163.036C75.4877 163.036 64.3115 156.379 57.9811 146.356C55.4831 151.101 54.0693 156.506 54.0693 162.241C54.0693 181.101 69.3585 196.39 88.2187 196.39C107.079 196.39 122.368 181.101 122.368 162.241C122.368 156.506 120.954 151.101 118.456 146.356Z" fill="white"/>
<path fill-rule="evenodd" clip-rule="evenodd" d="M57.9813 111.412C55.4832 116.157 54.0693 121.562 54.0693 127.298C54.0693 146.158 69.3585 161.447 88.2187 161.447C107.079 161.447 122.368 146.158 122.368 127.298C122.368 121.562 120.954 116.157 118.456 111.412C112.126 121.435 100.95 128.092 88.2187 128.092C75.4879 128.092 64.3118 121.435 57.9813 111.412Z" fill="white"/>
<defs>
<linearGradient id="paint0_linear_101_76" x1="0.0693363" y1="750.264" x2="730.069" y2="1188.79" gradientUnits="userSpaceOnUse">
<stop stop-color="white" stop-opacity="0.5"/>
<stop offset="1" stop-color="white" stop-opacity="0.23"/>
</linearGradient>
</defs>
</svg>
