<svg width="64" height="64" viewBox="0 0 64 64" fill="none" xmlns="http://www.w3.org/2000/svg">
<rect x="0.878812" y="63.1212" width="62.2424" height="62.2424" rx="11.1212" transform="rotate(-90 0.878812 63.1212)" fill="white" fill-opacity="0.45098" stroke="url(#paint0_linear_214_69)" stroke-width="1.75762"/>
<mask id="path-2-inside-1_214_69" fill="white">
<path d="M21 56C19.8954 56 19 55.1046 19 54L19 28C19 26.8954 19.8954 26 21 26L43 26C44.1046 26 45 26.8954 45 28L45 54C45 55.1046 44.1046 56 43 56L21 56Z"/>
</mask>
<path d="M21 56C19.8954 56 19 55.1046 19 54L19 28C19 26.8954 19.8954 26 21 26L43 26C44.1046 26 45 26.8954 45 28L45 54C45 55.1046 44.1046 56 43 56L21 56Z" fill="white" fill-opacity="0.45098"/>
<path d="M21 57.5C19.067 57.5 17.5 55.933 17.5 54L17.5 29.5C17.5 27.567 19.067 26 21 26C20.7239 26 20.5 26.8954 20.5 28L20.5 54C20.5 54.2761 20.7239 54.5 21 54.5L21 57.5ZM43 26C44.933 26 46.5 27.567 46.5 29.5L46.5 54C46.5 55.933 44.933 57.5 43 57.5L43 54.5C43.2761 54.5 43.5 54.2761 43.5 54L43.5 28C43.5 26.8954 43.2761 26 43 26ZM46.5 54C46.5 55.933 44.933 57.5 43 57.5L21 57.5C19.067 57.5 17.5 55.933 17.5 54L20.5 54C20.5 54.2761 20.7239 54.5 21 54.5L43 54.5C43.2761 54.5 43.5 54.2761 43.5 54L46.5 54ZM19 26L45 26L19 26Z" fill="url(#paint1_linear_214_69)" mask="url(#path-2-inside-1_214_69)"/>
<rect x="21.75" y="14.25" width="5.5" height="20.5" rx="2.75" transform="rotate(-90 21.75 14.25)" fill="white" fill-opacity="0.45098" stroke="url(#paint2_linear_214_69)" stroke-width="1.5"/>
<mask id="path-5-inside-2_214_69" fill="white">
<path d="M24 28C22.3431 28 21 26.6569 21 25L21 12L43 12L43 25C43 26.6569 41.6569 28 40 28L24 28Z"/>
</mask>
<path d="M24 28C22.3431 28 21 26.6569 21 25L21 12L43 12L43 25C43 26.6569 41.6569 28 40 28L24 28Z" fill="white" fill-opacity="0.45098"/>
<path d="M24 29.5C21.5147 29.5 19.5 27.4853 19.5 25L19.5 12L22.5 12L22.5 25C22.5 25.8284 23.1716 26.5 24 26.5L24 29.5ZM44.5 12L44.5 25C44.5 27.4853 42.4853 29.5 40 29.5L40 26.5C40.8284 26.5 41.5 25.8284 41.5 25L41.5 12L44.5 12ZM44.5 25C44.5 27.4853 42.4853 29.5 40 29.5L24 29.5C21.5147 29.5 19.5 27.4853 19.5 25L22.5 25C22.5 25.8284 23.1716 26.5 24 26.5L40 26.5C40.8284 26.5 41.5 25.8284 41.5 25L44.5 25ZM21 12L43 12L21 12Z" fill="url(#paint3_linear_214_69)" mask="url(#path-5-inside-2_214_69)"/>
<defs>
<linearGradient id="paint0_linear_214_69" x1="3.61584e-08" y1="66.7025" x2="76.2684" y2="95.4387" gradientUnits="userSpaceOnUse">
<stop stop-color="white" stop-opacity="0.5"/>
<stop offset="1" stop-color="white" stop-opacity="0.23"/>
</linearGradient>
<linearGradient id="paint1_linear_214_69" x1="20.0979" y1="56" x2="35.0254" y2="21.6636" gradientUnits="userSpaceOnUse">
<stop stop-color="white" stop-opacity="0.5"/>
<stop offset="1" stop-color="white" stop-opacity="0.23"/>
</linearGradient>
<linearGradient id="paint2_linear_214_69" x1="21" y1="15.929" x2="30.3911" y2="17.0548" gradientUnits="userSpaceOnUse">
<stop stop-color="white" stop-opacity="0.5"/>
<stop offset="1" stop-color="white" stop-opacity="0.23"/>
</linearGradient>
<linearGradient id="paint3_linear_214_69" x1="21.929" y1="28" x2="27.4787" y2="7.74687" gradientUnits="userSpaceOnUse">
<stop stop-color="white" stop-opacity="0.5"/>
<stop offset="1" stop-color="white" stop-opacity="0.23"/>
</linearGradient>
</defs>
</svg>
