<svg width="64" height="64" viewBox="0 0 64 64" fill="none" xmlns="http://www.w3.org/2000/svg">
<path d="M38.8281 26.4766H46.9141V30.9687H38.8281V26.4766Z" fill="white"/>
<path d="M17.0859 33.664H25.1719V38.1562H17.0859V33.664Z" fill="white"/>
<path d="M17.0859 26.4766H25.1719V30.9687H17.0859V26.4766Z" fill="white"/>
<path d="M27.8672 28.2734H36.1328V36.3594H27.8672V28.2734Z" fill="white"/>
<path d="M38.8281 33.664H46.9141V38.1562H38.8281V33.664Z" fill="white"/>
<path d="M26.5195 23.7812C27.2638 23.7812 27.8672 24.3846 27.8672 25.1289V25.5781H30.6523V22.4336C30.6523 22.0761 30.7943 21.7334 31.0471 21.4807L31.4419 21.0859H17.0859V23.7812H26.5195Z" fill="white"/>
<path d="M33.3477 22.9918V25.5781H36.1328V25.1289C36.1328 24.3846 36.7362 23.7812 37.4805 23.7812H46.9141V21.0859H35.2535L33.3477 22.9918Z" fill="white"/>
<path d="M37.4805 40.8516C36.7362 40.8516 36.1328 40.2482 36.1328 39.5039V39.0547H33.3477V42.1992C33.3477 42.5567 33.2057 42.8995 32.9529 43.1521L32.5582 43.5469H46.9141V40.8516H37.4805Z" fill="white"/>
<path d="M30.6523 41.641V39.0547H27.8672V39.5039C27.8672 40.2482 27.2638 40.8516 26.5195 40.8516H17.0859V43.5469H28.7465L30.6523 41.641Z" fill="white"/>
<path d="M48.2617 13L15.7383 13C12.0228 13 9 16.0228 9 19.7383L9 44.8945C9 48.61 12.0228 51.6328 15.7383 51.6328H48.2617C51.9772 51.6328 55 48.61 55 44.8945V19.7383C55 16.0228 51.9772 13 48.2617 13ZM49.6094 44.8945C49.6094 45.6388 49.006 46.2422 48.2617 46.2422H15.7383C14.994 46.2422 14.3906 45.6388 14.3906 44.8945L14.3906 19.7383C14.3906 18.994 14.994 18.3906 15.7383 18.3906L48.2617 18.3906C49.006 18.3906 49.6094 18.994 49.6094 19.7383V44.8945Z" fill="white"/>
<rect x="0.878812" y="63.1212" width="62.2424" height="62.2424" rx="11.1212" transform="rotate(-90 0.878812 63.1212)" fill="white" fill-opacity="0.45098" stroke="url(#paint0_linear_214_67)" stroke-width="1.75762"/>
<defs>
<linearGradient id="paint0_linear_214_67" x1="3.61584e-08" y1="66.7025" x2="76.2684" y2="95.4387" gradientUnits="userSpaceOnUse">
<stop stop-color="white" stop-opacity="0.5"/>
<stop offset="1" stop-color="white" stop-opacity="0.23"/>
</linearGradient>
</defs>
</svg>
