<svg width="34" height="33" viewBox="0 0 34 33" fill="none" xmlns="http://www.w3.org/2000/svg">
<g clip-path="url(#clip0_1545_15014)">
<path d="M2.13043 3.55991L2.13043 29.0088C2.13043 30.2865 3.16624 31.3223 4.44397 31.3223H29.8929C31.1706 31.3223 32.2064 30.2865 32.2064 29.0088V3.55991C32.2064 2.28218 31.1706 1.24637 29.8929 1.24637H4.44397C3.16624 1.24637 2.13043 2.28218 2.13043 3.55991Z" stroke="white" stroke-width="2.31353" stroke-linecap="round" stroke-linejoin="round"/>
<path d="M11.3846 25.5385V13.9708" stroke="white" stroke-width="2.31353" stroke-linecap="round" stroke-linejoin="round"/>
<path d="M11.3846 13.9708C13.3012 13.9708 14.8549 12.4171 14.8549 10.5005C14.8549 8.58392 13.3012 7.03021 11.3846 7.03021C9.46798 7.03021 7.91428 8.58392 7.91428 10.5005C7.91428 12.4171 9.46798 13.9708 11.3846 13.9708Z" stroke="white" stroke-width="2.31353" stroke-linecap="round" stroke-linejoin="round"/>
<path d="M22.9522 7.03021V13.9708" stroke="white" stroke-width="2.31353" stroke-linecap="round" stroke-linejoin="round"/>
<path d="M22.9522 20.9114V25.5385" stroke="white" stroke-width="2.31353" stroke-linecap="round" stroke-linejoin="round"/>
<path d="M22.9522 20.9114C24.8688 20.9114 26.4225 19.3577 26.4225 17.4411C26.4225 15.5245 24.8688 13.9708 22.9522 13.9708C21.0356 13.9708 19.4819 15.5245 19.4819 17.4411C19.4819 19.3577 21.0356 20.9114 22.9522 20.9114Z" stroke="white" stroke-width="2.31353" stroke-linecap="round" stroke-linejoin="round"/>
</g>
<defs>
<clipPath id="clip0_1545_15014">
<rect width="32.3895" height="32.3895" fill="white" transform="translate(0.973663 0.0895996)"/>
</clipPath>
</defs>
</svg>
