<svg width="34" height="33" viewBox="0 0 34 33" fill="none" xmlns="http://www.w3.org/2000/svg">
<g clip-path="url(#clip0_1545_15022)">
<path d="M5.37976 13.9708C7.29635 13.9708 8.85006 12.4171 8.85006 10.5005C8.85006 8.58392 7.29635 7.03021 5.37976 7.03021C3.46316 7.03021 1.90945 8.58392 1.90945 10.5005C1.90945 12.4171 3.46316 13.9708 5.37976 13.9708Z" stroke="white" stroke-width="2.31353" stroke-linecap="round" stroke-linejoin="round"/>
<path d="M5.37976 13.9708V31.3223" stroke="white" stroke-width="2.31353" stroke-linecap="round" stroke-linejoin="round"/>
<path d="M5.37976 1.24637V7.03021" stroke="white" stroke-width="2.31353" stroke-linecap="round" stroke-linejoin="round"/>
<path d="M28.5151 13.9708C30.4317 13.9708 31.9854 12.4171 31.9854 10.5005C31.9854 8.58392 30.4317 7.03021 28.5151 7.03021C26.5985 7.03021 25.0448 8.58392 25.0448 10.5005C25.0448 12.4171 26.5985 13.9708 28.5151 13.9708Z" stroke="white" stroke-width="2.31353" stroke-linecap="round" stroke-linejoin="round"/>
<path d="M28.5151 7.03021V1.24637" stroke="white" stroke-width="2.31353" stroke-linecap="round" stroke-linejoin="round"/>
<path d="M28.5151 31.3223V13.9708" stroke="white" stroke-width="2.31353" stroke-linecap="round" stroke-linejoin="round"/>
<path d="M16.9474 19.7547C18.864 19.7547 20.4177 18.201 20.4177 16.2844C20.4177 14.3678 18.864 12.8141 16.9474 12.8141C15.0308 12.8141 13.4771 14.3678 13.4771 16.2844C13.4771 18.201 15.0308 19.7547 16.9474 19.7547Z" stroke="white" stroke-width="2.31353" stroke-linecap="round" stroke-linejoin="round"/>
<path d="M16.9474 1.24637V12.814" stroke="white" stroke-width="2.31353" stroke-linecap="round" stroke-linejoin="round"/>
<path d="M16.9474 19.7547V31.3223" stroke="white" stroke-width="2.31353" stroke-linecap="round" stroke-linejoin="round"/>
</g>
<defs>
<clipPath id="clip0_1545_15022">
<rect width="32.3895" height="32.3895" fill="white" transform="translate(0.752686 0.0895996)"/>
</clipPath>
</defs>
</svg>
