<svg width="33" height="33" viewBox="0 0 33 33" fill="none" xmlns="http://www.w3.org/2000/svg">
<g clip-path="url(#clip0_1545_14909)">
<path d="M12.2944 5.73712L13.2892 3.16909C13.457 2.7343 13.7522 2.36031 14.1361 2.0961C14.52 1.8319 14.9748 1.68981 15.4408 1.68843H17.3379C17.804 1.68981 18.2587 1.8319 18.6426 2.0961C19.0266 2.36031 19.3217 2.7343 19.4895 3.16909L20.4843 5.73712L23.8621 7.68049L26.5921 7.26405C27.0466 7.20235 27.5093 7.27718 27.9212 7.47903C28.3332 7.68088 28.6758 8.00064 28.9056 8.39768L29.831 10.0172C30.0681 10.4205 30.1774 10.8863 30.1444 11.353C30.1113 11.8198 29.9375 12.2655 29.6459 12.6315L27.957 14.783V18.6698L29.6922 20.8214C29.9838 21.1873 30.1576 21.633 30.1906 22.0998C30.2237 22.5665 30.1144 23.0323 29.8773 23.4357L28.9519 25.0551C28.7221 25.4522 28.3794 25.7719 27.9675 25.9738C27.5556 26.1756 27.0929 26.2505 26.6383 26.1888L23.9084 25.7723L20.5306 27.7157L19.5358 30.2837C19.368 30.7185 19.0728 31.0925 18.6889 31.3567C18.305 31.6209 17.8502 31.763 17.3842 31.7644H15.4408C14.9748 31.763 14.52 31.6209 14.1361 31.3567C13.7522 31.0925 13.457 30.7185 13.2892 30.2837L12.2944 27.7157L8.91665 25.7723L6.18668 26.1888C5.73211 26.2505 5.26946 26.1756 4.85751 25.9738C4.44557 25.7719 4.10293 25.4522 3.87314 25.0551L2.94773 23.4357C2.7106 23.0323 2.60134 22.5665 2.63438 22.0998C2.66743 21.633 2.84122 21.1873 3.13281 20.8214L4.82169 18.6698V14.783L3.08654 12.6315C2.79495 12.2655 2.62116 11.8198 2.58811 11.353C2.55507 10.8863 2.66433 10.4205 2.90146 10.0172L3.82687 8.39768C4.05666 8.00064 4.3993 7.68088 4.81124 7.47903C5.22318 7.27718 5.68584 7.20235 6.14041 7.26405L8.87038 7.68049L12.2944 5.73712ZM11.7623 16.7264C11.7623 17.6416 12.0337 18.5362 12.5421 19.2971C13.0505 20.058 13.7732 20.6511 14.6187 21.0013C15.4642 21.3515 16.3945 21.4431 17.2921 21.2646C18.1896 21.086 19.0141 20.6453 19.6612 19.9982C20.3083 19.3511 20.749 18.5267 20.9275 17.6291C21.1061 16.7315 21.0144 15.8012 20.6642 14.9557C20.314 14.1102 19.7209 13.3876 18.96 12.8791C18.1991 12.3707 17.3045 12.0993 16.3894 12.0993C15.1622 12.0993 13.9853 12.5868 13.1175 13.4546C12.2498 14.3223 11.7623 15.4992 11.7623 16.7264V16.7264Z" stroke="white" stroke-width="2.31353" stroke-linecap="round" stroke-linejoin="round"/>
</g>
<defs>
<clipPath id="clip0_1545_14909">
<rect width="32.3895" height="32.3895" fill="white" transform="translate(0.194702 0.531677)"/>
</clipPath>
</defs>
</svg>
