<svg width="98" height="191" viewBox="0 0 98 191" fill="none" xmlns="http://www.w3.org/2000/svg">
<rect x="12.8788" y="190.121" width="132.242" height="84.2424" rx="5.12119" transform="rotate(-90 12.8788 190.121)" fill="white" fill-opacity="0.45098" stroke="url(#paint0_linear_213_18)" stroke-width="1.75762"/>
<path d="M21.8788 56.1212L21.8788 6C21.8788 3.17165 24.1716 0.878811 27 0.878811L83 0.878811C85.8284 0.878811 88.1212 3.17165 88.1212 6L88.1212 56.1212L21.8788 56.1212Z" fill="white" fill-opacity="0.45098" stroke="url(#paint1_linear_213_18)" stroke-width="1.75762"/>
<rect x="22.8788" y="9.12119" width="7.24238" height="64.2424" rx="3.62119" transform="rotate(-90 22.8788 9.12119)" fill="white" fill-opacity="0.45098" stroke="url(#paint2_linear_213_18)" stroke-width="1.75762"/>
<line x1="26" y1="88.0002" x2="26" y2="177" stroke="white" stroke-width="2"/>
<path d="M49.9687 116.914L49.9687 119.023L38.7422 119.023C35.25 119.023 32.6953 116.422 32.6953 112.414C32.6953 108.406 35.25 105.805 38.7422 105.805L49.9687 105.805L49.9687 107.914L38.9062 107.914C36.4453 107.914 34.6641 109.625 34.6641 112.414C34.6641 115.227 36.4453 116.914 38.9062 116.914L49.9687 116.914ZM45.7031 132.031C47.3672 131.844 48.3281 130.32 48.3281 128.281C48.3281 126.031 47.1562 124.555 45.5391 124.555C43.7578 124.555 43.1016 126.547 42.7734 127.836L42.3047 129.523C41.8359 131.352 40.7812 134.328 37.6172 134.328C34.8516 134.328 32.6953 132.102 32.6953 128.164C32.6953 124.508 34.5937 122.234 37.4062 122.047L37.4062 124.203C35.5078 124.391 34.6172 126.148 34.6172 128.164C34.6172 130.508 35.8125 132.266 37.6641 132.266C39.3047 132.266 39.9375 130.695 40.4531 128.914L41.0156 126.828C41.7891 124.156 43.1484 122.516 45.4453 122.516C48.3047 122.516 50.2031 125.07 50.2031 128.352C50.2031 131.633 48.2812 134 45.7031 134.094L45.7031 132.031ZM33 137.352L49.9687 137.352L49.9687 143.305C49.9687 146.867 47.9766 148.531 45.4687 148.531C43.2891 148.531 42.3047 147.242 41.9062 145.766L41.7422 145.766C41.6484 147.336 40.1953 149.211 37.5 149.211C34.9453 149.211 33 147.523 33 143.516L33 137.352ZM34.875 143.492C34.875 146.141 36.0469 147.172 37.5234 147.172C39.2578 147.172 40.7109 145.789 40.7109 143.609L40.7109 139.461L34.875 139.461L34.875 143.492ZM42.5391 143.234C42.5391 145.062 43.6641 146.516 45.4453 146.516C46.9219 146.516 48.0937 145.531 48.0937 143.305L48.0937 139.461L42.5391 139.461L42.5391 143.234ZM44.625 169.812C46.9687 169.32 48.2344 167.305 48.2344 165.078C48.2344 162.008 45.8672 159.617 41.4844 159.617C37.1016 159.617 34.7344 162.008 34.7344 165.078C34.7344 167.305 36 169.297 38.3203 169.812L38.3203 171.922C34.8516 171.312 32.7656 168.523 32.7656 165.078C32.7656 160.719 36.1172 157.578 41.4844 157.578C46.8516 157.578 50.2031 160.719 50.2031 165.078C50.2031 168.5 48.1406 171.289 44.625 171.922L44.625 169.812Z" fill="white"/>
<defs>
<linearGradient id="paint0_linear_213_18" x1="12" y1="194.631" x2="147.616" y2="274.248" gradientUnits="userSpaceOnUse">
<stop stop-color="white" stop-opacity="0.5"/>
<stop offset="1" stop-color="white" stop-opacity="0.23"/>
</linearGradient>
<linearGradient id="paint1_linear_213_18" x1="23.8714" y1="57" x2="46.148" y2="-13.5339" gradientUnits="userSpaceOnUse">
<stop stop-color="white" stop-opacity="0.5"/>
<stop offset="1" stop-color="white" stop-opacity="0.23"/>
</linearGradient>
<linearGradient id="paint2_linear_213_18" x1="22" y1="12.7869" x2="34.2156" y2="13.4146" gradientUnits="userSpaceOnUse">
<stop stop-color="white" stop-opacity="0.5"/>
<stop offset="1" stop-color="white" stop-opacity="0.23"/>
</linearGradient>
</defs>
</svg>
